<?xml version="1.0" standalone="no"?>
<!DOCTYPE svg PUBLIC "-//W3C//DTD SVG 20010904//EN"
 "http://www.w3.org/TR/2001/REC-SVG-20010904/DTD/svg10.dtd">
<svg version="1.0" xmlns="http://www.w3.org/2000/svg"
 width="331.000000pt" height="331.000000pt" viewBox="0 0 331.000000 331.000000"
 preserveAspectRatio="xMidYMid meet">
<metadata>
Created by potrace 1.14, written by Peter Selinger 2001-2017
</metadata>
<g transform="translate(0.000000,331.000000) scale(0.100000,-0.100000)"
fill="#000000" stroke="none">
<path d="M1035 3301 c3 -5 21 -15 40 -21 19 -6 40 -21 46 -31 8 -16 17 -19 39
-14 23 5 33 1 51 -19 13 -14 28 -26 35 -26 7 0 19 -6 27 -14 26 -27 82 -56
106 -56 13 0 29 -7 35 -16 7 -8 32 -18 56 -21 37 -5 95 -36 120 -63 3 -3 20
-16 38 -29 17 -12 32 -27 32 -32 0 -6 15 -23 32 -40 l33 -29 9 22 c4 13 12 32
17 43 8 16 8 15 4 -7 -3 -16 -8 -38 -11 -50 -4 -18 1 -27 25 -41 29 -17 32
-17 38 -1 6 15 7 15 14 -4 11 -30 49 -29 57 1 6 20 7 20 12 -8 3 -17 11 -30
20 -30 8 0 25 -6 38 -13 17 -10 22 -10 22 0 0 7 7 3 15 -9 8 -12 28 -24 43
-28 19 -4 32 -15 39 -36 15 -39 28 -31 38 23 5 28 10 36 12 22 2 -11 0 -40 -6
-63 -12 -53 -8 -62 30 -85 33 -20 99 -24 174 -12 49 8 52 7 105 -33 30 -23 62
-41 71 -41 9 0 37 -11 64 -25 46 -25 49 -25 100 -10 29 8 72 26 96 40 54 30
76 31 84 5 4 -12 21 -36 38 -55 18 -18 48 -52 67 -76 19 -23 56 -65 81 -93 25
-28 56 -66 68 -84 14 -19 29 -31 37 -28 7 3 16 1 19 -4 4 -6 16 -8 29 -4 27 6
76 -29 76 -56 0 -17 34 -50 52 -50 17 0 8 83 -10 96 -16 13 -16 13 1 14 9 0
17 7 17 15 0 16 -34 55 -48 55 -4 0 -12 10 -17 22 -6 13 -25 27 -45 32 -38 11
-77 48 -57 55 7 2 22 13 34 24 21 19 24 19 48 3 14 -9 25 -20 25 -24 0 -5 14
-18 30 -30 l30 -23 0 185 0 184 -116 116 c-86 86 -114 120 -110 134 7 19 112
76 126 67 5 -3 29 5 54 17 39 19 46 26 46 52 0 27 -1 28 -13 11 -14 -18 -44
-17 -76 4 -23 15 2 37 49 45 l40 6 0 75 0 75 -451 0 -451 0 4 -25 c3 -14 1
-25 -3 -25 -5 0 -11 11 -15 25 -6 24 -8 25 -98 25 -56 0 -97 -5 -103 -11 -9
-9 -26 -9 -69 0 -71 14 -1098 16 -1089 2z m502 -22 c7 -7 17 -8 25 -3 19 13
208 15 246 3 37 -12 39 -18 13 -50 -18 -23 -25 -24 -138 -23 -135 1 -169 7
-176 31 -2 10 -8 26 -12 36 -5 13 -2 17 12 17 10 0 24 -5 30 -11z m683 -220
c0 -6 -4 -7 -10 -4 -5 3 -10 11 -10 16 0 6 5 7 10 4 6 -3 10 -11 10 -16z m-40
-19 c0 -5 -4 -10 -10 -10 -5 0 -10 5 -10 10 0 6 5 10 10 10 6 0 10 -4 10 -10z
m125 -10 c4 -6 -12 -10 -40 -10 -28 0 -44 4 -40 10 3 6 21 10 40 10 19 0 37
-4 40 -10z m-614 -73 c-10 -9 -11 -8 -5 6 3 10 9 15 12 12 3 -3 0 -11 -7 -18z
m436 -149 c-3 -8 -6 -5 -6 6 -1 11 2 17 5 13 3 -3 4 -12 1 -19z m853 8 c0 -3
-4 -8 -10 -11 -5 -3 -10 -1 -10 4 0 6 5 11 10 11 6 0 10 -2 10 -4z m115 -262
c42 -47 74 -91 72 -97 -2 -7 -21 -13 -43 -15 -36 -3 -44 1 -89 50 -28 29 -61
66 -74 81 l-23 28 22 19 c13 11 31 20 41 20 10 0 52 -39 94 -86z"/>
<path d="M1033 2585 c-50 -8 -101 -23 -128 -38 -25 -14 -67 -29 -93 -33 -36
-5 -56 -16 -89 -48 -57 -56 -108 -96 -122 -96 -6 0 -11 -4 -11 -9 0 -8 -68
-36 -118 -48 -15 -3 -21 -11 -18 -19 8 -21 -45 -91 -76 -103 -15 -5 -44 -26
-64 -46 -31 -31 -35 -41 -30 -67 3 -18 1 -37 -5 -45 -8 -9 -10 -36 -5 -86 4
-39 7 -85 7 -100 -1 -17 3 -26 9 -22 5 3 14 4 19 1 12 -8 -15 -111 -38 -152
-33 -55 -43 -99 -30 -127 11 -24 12 -24 51 -9 36 14 42 14 68 -1 35 -21 101
-14 126 14 9 11 23 19 29 19 20 0 27 30 7 30 -16 1 -16 1 1 14 25 19 22 56 -4
56 -16 0 -19 4 -14 20 4 14 1 22 -10 26 -14 6 -12 8 7 18 21 11 24 26 15 68
-1 3 3 7 8 8 6 1 22 11 37 21 19 14 25 25 21 40 -6 20 -3 21 38 13 49 -8 50
-8 137 -6 84 3 106 23 97 92 -9 65 -29 121 -49 136 -10 6 -14 18 -10 28 4 11
1 16 -10 16 -9 0 -16 -7 -16 -16 0 -11 -5 -14 -16 -10 -9 3 -38 6 -65 6 -41 0
-49 3 -49 18 0 12 13 23 35 32 26 10 34 18 30 31 -4 12 1 17 20 17 23 0 29 -7
26 -33 0 -5 17 -19 39 -29 l40 -19 24 24 c31 32 45 79 23 79 -25 0 -28 15 -11
56 15 36 17 37 30 19 9 -12 12 -31 8 -57 -5 -27 -3 -38 6 -38 8 0 10 -8 6 -26
-4 -15 -2 -32 5 -40 9 -11 8 -14 -5 -14 -10 0 -15 -4 -12 -9 3 -5 -1 -14 -9
-21 -14 -11 -12 -15 12 -30 28 -17 28 -16 41 14 8 17 15 45 18 61 6 49 23 79
54 100 17 11 30 26 30 34 0 8 7 11 18 9 11 -3 30 0 43 7 20 11 26 10 41 -8 13
-14 18 -16 18 -6 1 8 8 1 17 -16 8 -16 17 -31 18 -33 2 -2 12 2 23 9 21 13 23
13 93 -26 20 -11 59 -83 59 -111 1 -18 1 -18 15 0 8 11 15 30 15 43 0 13 5 23
10 23 6 0 10 9 10 19 0 10 7 22 16 25 10 4 13 13 9 27 -6 18 -5 20 14 10 30
-16 26 -47 -9 -72 l-29 -22 23 -24 c13 -13 26 -38 30 -56 5 -23 9 -28 15 -18
5 7 14 11 19 7 6 -4 44 0 84 9 40 8 85 15 101 15 29 0 37 14 13 23 -11 5 -12
14 -4 46 9 37 25 51 40 35 3 -3 2 -22 -4 -41 -8 -30 -7 -38 7 -45 11 -7 14
-16 9 -31 -13 -44 -30 -54 -91 -50 -44 3 -61 0 -69 -12 -11 -14 -18 -15 -70
-2 -72 18 -195 29 -210 19 -24 -17 -71 -119 -73 -161 -2 -52 7 -61 59 -54 23
3 48 -1 68 -11 37 -19 88 -21 95 -3 3 6 6 3 6 -8 0 -11 -3 -26 -8 -34 -7 -11
1 -25 30 -53 21 -21 45 -38 52 -38 6 0 4 -5 -5 -11 -30 -17 -20 -33 29 -49 44
-14 70 -40 41 -40 -24 0 -35 -42 -19 -75 8 -16 18 -38 23 -47 13 -28 10 -38
-18 -48 -20 -8 -23 -13 -15 -27 7 -13 5 -23 -6 -35 -9 -10 -15 -29 -15 -43 0
-31 -3 -31 -40 0 -39 33 -46 25 -23 -25 20 -43 60 -64 76 -39 4 8 4 16 -3 20
-7 4 -7 9 1 14 17 10 87 -56 88 -81 0 -12 9 -41 20 -65 65 -140 87 -207 90
-269 4 -61 3 -64 -11 -40 -8 14 -20 34 -25 45 -5 11 -10 14 -10 8 -1 -19 -21
-16 -21 2 0 9 -7 18 -15 21 -8 4 -15 15 -15 26 0 14 6 19 23 18 37 -3 38 -1
14 38 -13 20 -28 48 -32 62 -4 14 -16 41 -26 60 l-19 35 0 -38 c0 -38 -8 -45
-27 -26 -16 16 -15 -80 2 -166 23 -120 28 -168 16 -160 -6 3 -12 0 -12 -7 -4
-45 -9 -74 -17 -98 -7 -18 -6 -33 4 -51 21 -37 17 -87 -12 -145 -17 -35 -25
-64 -22 -84 4 -29 3 -30 -33 -30 -21 0 -58 10 -82 23 -39 21 -43 26 -35 47 5
14 5 27 -2 34 -5 5 -10 19 -10 30 0 24 -79 96 -97 89 -9 -4 -16 3 -20 16 -6
25 -35 28 -53 6 -9 -11 -16 -13 -24 -5 -5 5 -22 10 -38 10 -31 0 -57 31 -67
82 -5 23 -12 32 -29 33 -12 1 -23 4 -25 6 -26 33 -48 71 -44 75 3 3 23 12 44
19 35 12 39 12 46 -7 5 -14 2 -24 -7 -32 -16 -13 -31 -56 -19 -56 5 0 17 11
27 25 10 14 22 25 26 25 13 0 50 -42 45 -51 -4 -5 1 -9 9 -9 20 0 36 32 29 58
-3 13 -1 22 6 22 6 0 11 -9 11 -19 0 -24 16 -36 24 -19 4 7 4 3 2 -9 -4 -24 1
-27 28 -17 17 7 22 34 6 34 -5 0 -10 7 -10 15 0 8 7 15 15 15 8 0 15 6 15 14
0 30 -13 46 -36 46 -19 0 -24 5 -24 24 0 13 -6 28 -13 34 -17 14 -42 -2 -34
-22 3 -8 2 -18 -3 -21 -6 -4 -10 0 -10 9 0 8 -3 21 -6 30 -4 11 -1 16 10 16 9
0 17 7 17 15 2 19 4 25 14 48 10 23 -1 33 -19 18 -8 -7 -21 -9 -27 -5 -9 5
-10 2 -5 -11 4 -11 0 -25 -10 -36 -13 -14 -14 -22 -5 -32 9 -11 8 -17 -5 -28
-13 -10 -17 -10 -24 1 -4 7 -4 20 2 29 6 11 6 25 -1 43 -10 25 -13 27 -36 16
-24 -11 -25 -15 -19 -55 5 -35 3 -43 -9 -43 -10 0 -18 13 -23 35 -8 45 -27 61
-47 40 -23 -22 -26 -19 -20 21 6 37 6 37 -23 30 -16 -4 -37 -9 -46 -12 -13 -4
-21 2 -28 20 -5 14 -16 26 -24 26 -7 0 -16 14 -20 31 -5 25 -10 29 -25 24 -13
-4 -23 0 -30 12 -15 30 -85 19 -101 -15 -7 -15 -14 -22 -18 -15 -4 6 -21 14
-38 17 l-31 7 -17 -68 c-9 -37 -19 -103 -22 -146 l-7 -77 -48 -27 c-40 -21
-50 -32 -55 -60 -4 -22 -15 -38 -29 -45 -26 -12 -55 -58 -55 -87 0 -25 33 -93
66 -137 13 -17 24 -36 24 -42 0 -7 4 -12 9 -12 5 0 12 -19 15 -42 6 -39 4 -45
-23 -70 -37 -33 -51 -59 -51 -96 0 -29 45 -137 70 -167 11 -13 94 -15 629 -15
l616 1 -32 29 c-18 16 -33 34 -33 40 0 5 -3 9 -7 8 -5 -1 -19 2 -32 6 -15 5
-26 4 -30 -3 -5 -7 -20 -1 -46 16 -21 14 -53 29 -69 33 -17 4 -30 12 -28 18 1
7 -1 12 -5 13 -47 5 -76 29 -67 54 9 22 62 36 84 23 13 -9 16 -16 9 -24 -7 -8
-7 -14 0 -18 14 -9 32 29 28 56 -2 13 -2 17 0 11 9 -26 37 -6 46 32 4 17 6 16
16 -10 6 -16 23 -35 36 -42 14 -6 23 -7 19 -2 -9 15 24 10 40 -7 15 -14 20
-11 17 8 -2 12 17 10 24 -2 3 -6 18 -7 32 -4 14 4 28 3 32 -2 12 -17 90 -54
114 -54 13 0 32 -9 42 -20 21 -23 37 -17 33 12 -2 16 3 22 19 23 13 1 26 4 29
7 3 4 19 2 35 -2 22 -7 29 -5 29 6 0 19 42 28 95 21 29 -4 53 -2 72 8 15 8 33
15 38 15 6 0 15 10 20 22 13 29 33 34 42 11 3 -10 11 -21 17 -25 17 -12 61 -9
74 4 14 14 117 11 143 -5 13 -8 21 -8 34 3 13 11 20 10 45 -8 36 -27 40 -27
40 -3 0 11 5 23 10 26 6 3 10 1 10 -4 0 -6 6 -11 14 -11 8 0 16 -7 20 -15 3
-8 12 -15 21 -15 8 0 15 -9 15 -20 0 -11 7 -20 15 -20 16 0 36 -39 28 -52 -2
-5 -17 -8 -33 -8 -33 0 -44 -13 -46 -53 -2 -36 -21 -58 -33 -38 -7 11 -10 11
-17 -2 -5 -9 -18 -15 -28 -14 -10 1 -21 -4 -24 -11 -3 -11 49 -13 294 -10 165
2 307 8 317 12 9 4 17 19 17 31 0 13 5 27 10 30 19 12 11 35 -12 32 -20 -2
-23 3 -24 36 -1 20 -7 45 -15 55 -33 41 -42 64 -27 74 10 8 10 9 -2 6 -7 -3
-28 9 -45 25 -16 16 -40 33 -53 38 -20 8 -43 45 -46 74 -1 6 -14 9 -29 7 -22
-2 -28 1 -27 15 4 32 0 43 -14 43 -7 0 -16 9 -19 20 -3 11 -9 20 -14 19 -20
-4 -33 2 -33 15 0 14 -48 32 -58 21 -3 -3 2 -5 12 -5 15 0 16 -2 2 -15 -21
-21 -33 -19 -75 13 -20 15 -49 34 -64 42 -25 12 -29 12 -37 0 -18 -28 -22 -1
-4 29 l18 30 -33 30 c-18 17 -39 31 -45 31 -7 0 -19 18 -26 40 -13 38 -15 40
-56 40 l-42 0 2 63 c1 57 0 63 -16 59 -19 -5 -26 22 -8 33 17 10 -1 35 -26 35
-17 0 -28 -8 -36 -26 -9 -19 -17 -24 -32 -20 -12 3 -30 6 -41 6 -15 0 -17 3
-7 9 11 7 10 10 -3 15 -24 9 -37 7 -30 -4 4 -6 -2 -7 -17 -1 -16 6 -25 20 -31
47 -4 21 -12 59 -17 84 -20 99 -23 150 -7 150 7 0 22 -9 32 -20 10 -11 22 -17
26 -14 15 9 10 38 -16 102 -30 74 -34 169 -8 212 15 26 15 30 -3 60 -20 34
-23 36 -87 64 -30 13 -38 21 -35 39 5 38 43 34 80 -10 79 -91 99 -108 109 -93
21 34 -25 169 -79 232 -16 18 -48 74 -71 123 -68 145 -83 171 -126 220 -26 30
-50 48 -67 50 -38 4 -80 32 -103 68 -11 17 -42 46 -70 66 -27 19 -70 54 -94
78 -25 24 -56 46 -70 49 -15 3 -38 12 -53 20 -14 8 -31 14 -38 14 -6 0 -29 9
-51 19 -22 11 -54 23 -72 26 -18 4 -36 11 -42 15 -41 31 -227 44 -352 25z
m-73 -231 c0 -8 -5 -12 -10 -9 -6 4 -8 11 -5 16 9 14 15 11 15 -7z m40 -51 c0
-7 -4 -13 -10 -13 -5 0 -10 12 -10 28 0 21 2 24 10 12 5 -8 10 -21 10 -27z
m310 3 c0 -16 -18 -31 -27 -22 -8 8 5 36 17 36 5 0 10 -6 10 -14z m386 -129
c9 -27 -4 -34 -21 -11 -8 10 -15 15 -15 11 0 -4 -9 -3 -21 3 -15 9 -18 15 -9
25 14 17 57 -2 66 -28z m159 23 c3 -5 1 -10 -4 -10 -6 0 -11 5 -11 10 0 6 2
10 4 10 3 0 8 -4 11 -10z m107 -99 c6 -10 17 -17 25 -14 18 7 28 -26 15 -48
-8 -12 -8 -20 -1 -25 6 -3 13 3 16 15 3 11 9 18 15 15 5 -3 6 -15 2 -26 -4
-15 3 -27 28 -49 33 -28 33 -28 8 -29 -14 0 -38 9 -55 20 -16 11 -36 20 -44
20 -8 0 -29 15 -47 34 -23 23 -36 30 -43 23 -14 -14 -23 -4 -15 17 7 19 45 21
62 4 10 -10 15 -10 22 2 7 11 4 19 -11 30 -11 9 -17 19 -13 23 12 12 23 8 36
-12z m-1232 -96 c0 -8 -4 -15 -9 -15 -13 0 -22 16 -14 24 11 11 23 6 23 -9z
m78 -47 c-7 -19 -38 -22 -38 -4 0 10 9 16 21 16 12 0 19 -5 17 -12z m622 -3
c0 -8 -4 -15 -9 -15 -13 0 -22 16 -14 24 11 11 23 6 23 -9z m473 -30 c-3 -8
-9 -15 -14 -15 -10 0 -12 24 -3 33 11 11 24 -3 17 -18z m-596 -4 c-1 -15 -4
-17 -14 -9 -17 14 -16 28 1 28 8 0 14 -9 13 -19z m53 -26 c0 -8 -4 -15 -9 -15
-13 0 -22 16 -14 24 11 11 23 6 23 -9z m250 6 c0 -5 -7 -17 -16 -25 -8 -9 -20
-16 -25 -16 -5 0 -9 -8 -9 -18 0 -10 -5 -23 -12 -30 -17 -17 -58 -15 -58 3 0
8 6 15 14 15 7 0 26 18 41 40 25 36 65 55 65 31z m350 -44 c-1 -12 -7 -33 -14
-47 l-14 -24 -16 38 c-20 48 -20 45 7 55 28 11 37 5 37 -22z m-510 4 c0 -16
-36 -22 -64 -12 -38 15 -32 21 19 21 25 0 45 -4 45 -9z m587 -27 c-3 -3 -12
-4 -19 -1 -8 3 -5 6 6 6 11 1 17 -2 13 -5z m-23 -40 c9 -8 16 -21 16 -29 0 -7
4 -15 9 -17 4 -1 5 -12 0 -23 -7 -18 -8 -18 -8 -2 -1 23 -22 45 -39 39 -7 -2
-12 6 -12 22 0 30 12 33 34 10z m64 -22 c2 -7 -2 -10 -12 -6 -9 3 -16 11 -16
16 0 13 23 5 28 -10z m32 -205 c7 -29 21 -90 32 -136 30 -128 17 -139 -20 -16
-55 181 -62 207 -56 217 11 18 32 -13 44 -65z m-161 -268 c-1 -182 -5 -326 -9
-319 -4 7 -6 154 -4 329 3 349 2 321 10 321 3 0 4 -149 3 -331z m261 -193 c14
-156 11 -260 -4 -148 -6 39 -13 61 -20 59 -6 -3 -19 2 -28 11 -16 13 -18 12
-27 -12 -12 -31 -26 -33 -41 -7 -15 30 -12 72 8 87 15 12 14 13 -10 14 -16 0
-28 -6 -28 -12 -1 -19 -30 51 -30 71 0 29 24 70 48 80 12 6 22 15 22 20 0 5
15 11 33 13 53 5 63 -16 77 -176z m-1180 -227 c0 -9 14 -21 33 -27 l32 -10
-42 -1 c-32 -1 -43 3 -43 14 0 8 -4 15 -10 15 -14 0 -12 38 3 43 14 5 27 -11
27 -34z m71 -6 c-9 -16 -10 -14 -11 12 0 21 3 26 11 18 8 -8 8 -16 0 -30z
m1345 0 c-11 -11 -19 6 -11 24 8 17 8 17 12 0 3 -10 2 -21 -1 -24z m-1474 -35
c6 -2 8 -9 4 -16 -10 -17 -46 7 -46 31 0 16 2 17 15 4 8 -9 20 -17 27 -19z
m28 -52 c0 -2 -7 -6 -15 -10 -8 -3 -15 -1 -15 4 0 6 7 10 15 10 8 0 15 -2 15
-4z m1270 -160 c0 -26 -15 -43 -24 -28 -7 12 4 52 15 52 5 0 9 -11 9 -24z m70
-76 c0 -5 -2 -10 -4 -10 -3 0 -8 5 -11 10 -3 6 -1 10 4 10 6 0 11 -4 11 -10z
m510 -100 c0 -5 -7 -10 -15 -10 -8 0 -15 5 -15 10 0 6 7 10 15 10 8 0 15 -4
15 -10z m-553 -127 c-3 -10 -5 -4 -5 12 0 17 2 24 5 18 2 -7 2 -21 0 -30z
m531 -25 c20 -20 14 -28 -23 -28 -39 0 -43 6 -17 26 21 17 25 17 40 2z m-1593
-38 c0 -22 -39 -19 -43 3 -3 15 1 18 20 15 12 -2 23 -10 23 -18z m735 -10 c0
-5 -7 -10 -16 -10 -8 0 -12 5 -9 10 3 6 10 10 16 10 5 0 9 -4 9 -10z m-100
-40 c0 -5 -9 -10 -21 -10 -11 0 -17 5 -14 10 3 6 13 10 21 10 8 0 14 -4 14
-10z m-230 -180 c0 -5 -4 -10 -10 -10 -5 0 -10 5 -10 10 0 6 5 10 10 10 6 0
10 -4 10 -10z"/>
<path d="M2170 1045 c0 -8 4 -15 10 -15 5 0 7 7 4 15 -4 8 -8 15 -10 15 -2 0
-4 -7 -4 -15z"/>
<path d="M980 2166 c0 -9 5 -16 10 -16 6 0 10 4 10 9 0 6 -4 13 -10 16 -5 3
-10 -1 -10 -9z"/>
<path d="M1428 2143 c7 -3 16 -2 19 1 4 3 -2 6 -13 5 -11 0 -14 -3 -6 -6z"/>
<path d="M252 1777 c-18 -49 -14 -57 8 -17 21 39 24 50 12 50 -4 0 -13 -15
-20 -33z"/>
<path d="M884 1688 c-10 -16 -12 -98 -1 -98 4 0 7 6 7 14 0 10 7 12 22 8 19
-5 21 -2 14 29 -8 43 -30 67 -42 47z"/>
<path d="M202 1600 c0 -14 2 -19 5 -12 2 6 2 18 0 25 -3 6 -5 1 -5 -13z"/>
<path d="M940 1574 c0 -8 16 -22 35 -30 40 -16 59 -18 50 -4 -3 6 -15 10 -26
10 -10 0 -24 9 -31 20 -15 24 -28 26 -28 4z"/>
<path d="M2340 1563 c0 -5 10 -39 21 -78 29 -98 29 -109 0 -113 -22 -3 -23 -7
-17 -49 3 -25 6 -70 6 -99 0 -51 2 -55 38 -78 20 -13 105 -91 189 -172 83 -82
172 -167 197 -189 26 -22 79 -71 119 -110 40 -38 121 -115 180 -170 59 -55
110 -108 113 -118 3 -11 19 -38 34 -61 19 -28 27 -50 23 -64 -3 -15 -1 -22 9
-22 7 0 14 -9 14 -20 0 -11 -4 -20 -8 -20 -4 0 -8 7 -8 15 0 8 -5 15 -10 15
-6 0 -4 -14 5 -31 9 -17 14 -37 11 -44 -3 -9 0 -12 8 -9 8 3 16 -4 20 -18 5
-15 9 -18 13 -10 3 7 0 26 -7 41 -9 23 -9 33 1 49 10 16 10 31 0 78 -8 32 -19
72 -26 89 -41 94 -55 122 -72 140 -43 47 -124 162 -132 190 -35 112 -96 233
-163 326 -26 36 -48 70 -48 76 0 19 -90 136 -149 193 -31 31 -81 83 -111 118
-30 34 -59 62 -64 62 -4 0 -28 14 -53 30 -78 53 -134 75 -133 53z"/>
<path d="M600 1499 c0 -5 5 -7 10 -4 6 3 10 8 10 11 0 2 -4 4 -10 4 -5 0 -10
-5 -10 -11z"/>
<path d="M505 1492 c-24 -3 -40 -25 -50 -70 -6 -28 -4 -32 14 -32 12 0 30 10
41 23 12 12 27 29 35 38 28 30 9 49 -40 41z"/>
<path d="M1015 1440 c-3 -5 3 -10 15 -10 12 0 18 5 15 10 -3 6 -10 10 -15 10
-5 0 -12 -4 -15 -10z"/>
<path d="M2288 1408 c-6 -18 2 -48 13 -48 18 0 22 32 7 47 -13 12 -17 12 -20
1z"/>
<path d="M570 1400 c0 -5 -8 -10 -19 -10 -10 0 -24 -6 -30 -14 -16 -19 6 -67
28 -64 10 2 17 -6 19 -20 3 -16 8 -22 19 -18 8 3 17 6 19 6 2 0 4 11 4 25 0
15 6 25 14 25 11 0 13 -9 9 -35 -6 -40 8 -46 28 -12 15 24 14 87 -2 87 -5 0
-9 -4 -9 -10 0 -5 -4 -10 -9 -10 -5 0 -7 10 -4 21 5 19 4 20 -16 9 -12 -6 -26
-21 -30 -32 -8 -21 -8 -21 -14 3 -4 13 -2 28 3 33 13 13 13 26 0 26 -5 0 -10
-4 -10 -10z"/>
<path d="M692 1300 c0 -19 2 -27 5 -17 2 9 2 25 0 35 -3 9 -5 1 -5 -18z"/>
<path d="M550 1155 c0 -8 4 -15 10 -15 5 0 7 7 4 15 -4 8 -8 15 -10 15 -2 0
-4 -7 -4 -15z"/>
<path d="M1539 1070 c0 -3 -3 -43 -5 -90 -2 -47 -9 -99 -15 -117 -6 -20 -7
-39 -1 -50 5 -10 7 -23 5 -30 -4 -12 31 -28 45 -19 4 2 6 -14 4 -37 -3 -32 -1
-39 8 -31 13 13 17 158 5 244 -6 46 -41 147 -46 130z m18 -147 c-3 -10 -5 -4
-5 12 0 17 2 24 5 18 2 -7 2 -21 0 -30z"/>
<path d="M1375 1028 c-4 -10 -4 -26 0 -35 8 -17 8 -17 12 0 3 9 3 25 0 35 -4
16 -4 16 -12 0z"/>
<path d="M1422 978 c-34 -163 -33 -160 -16 -180 10 -10 14 -21 9 -26 -4 -4
-10 -1 -12 6 -6 17 -23 15 -23 -3 0 -9 7 -18 16 -22 10 -4 14 -13 10 -27 -2
-11 -1 -37 3 -56 l8 -35 17 38 c11 25 23 37 36 37 12 0 20 7 20 16 0 15 -2 15
-25 0 -33 -21 -38 -20 -29 7 4 12 9 33 11 47 6 53 16 85 28 95 7 6 15 37 18
70 4 39 3 53 -3 40 -5 -11 -9 -14 -9 -7 -1 6 -8 12 -16 12 -8 0 -15 9 -15 20
0 39 -17 19 -28 -32z"/>
<path d="M1296 984 c-4 -16 -9 -48 -12 -71 -5 -42 -5 -43 25 -43 16 0 33 -5
36 -10 12 -20 35 18 34 57 -1 37 -1 38 -9 8 -8 -31 -11 -22 -14 35 -1 15 -6
24 -15 22 -7 -1 -19 5 -26 14 -11 15 -13 14 -19 -12z"/>
<path d="M1241 934 c0 -11 3 -14 6 -6 3 7 2 16 -1 19 -3 4 -6 -2 -5 -13z"/>
<path d="M1710 915 c0 -8 5 -15 10 -15 6 0 10 7 10 15 0 8 -4 15 -10 15 -5 0
-10 -7 -10 -15z"/>
<path d="M1331 824 c0 -11 3 -14 6 -6 3 7 2 16 -1 19 -3 4 -6 -2 -5 -13z"/>
<path d="M2515 820 c3 -5 8 -10 11 -10 2 0 4 5 4 10 0 6 -5 10 -11 10 -5 0 -7
-4 -4 -10z"/>
<path d="M1342 717 c-6 -7 -13 -26 -17 -42 l-6 -30 17 30 c9 17 21 33 27 36 6
4 5 9 -1 13 -5 3 -14 0 -20 -7z"/>
<path d="M1890 113 c0 -5 9 -19 19 -32 18 -24 19 -24 29 -4 8 14 8 23 0 31
-13 13 -48 16 -48 5z"/>
</g>
</svg>
